# xmcd
# 
# Track frame offsets:
#   150
#   23402
#   44066
#   56776
#   76165
#   97431
#   107474
#   124314
#   139289
#   160314
#   181239
#   199813
#   218988
#   239417
#   257099
#   277996
# 
# Disc length: 3938 seconds
# 
# Revision: 1
# Processed by: cddbd v1.5.1PL0 Copyright (c) Steve Scherf et al.
# Submitted via: VOLTOCDX V1.0.24 
# 
DISCID=ed0f6010
DTITLE=My Artist - My Title
DYEAR=2005
DGENRE=Description of the extended genre
TTITLE0=Thug Luv (Featuring 2Pac)
TTITLE1=Lowrider
TTITLE2=
TTITLE3=Child Of The West
TTITLE4=(Rock) Superstar
TTITLE5=
TTITLE6=Bang Bang
TTITLE7=
TTITLE8=Fo' All Y'All
TTITLE9=Bust at You
TTITLE10=It's nothing
TTITLE11=I Got To featuring Lil Wayne
TTITLE12=Strugglin
TTITLE13=Bia-Bia !!!
TTITLE14=
TTITLE15=The Message
EXTD=Extended CD description
EXTT0=
EXTT1=
EXTT2=
EXTT3=
EXTT4=
EXTT5=
EXTT6=
EXTT7=
EXTT8=
EXTT9=
EXTT10=
EXTT11=
EXTT12=
EXTT13=
EXTT14=
EXTT15=
PLAYORDER=
